<svg xmlns="http://www.w3.org/2000/svg" width="24" height="24" viewBox="0 0 24 24" fill="currentColor" focusable="false" role="img" aria-hidden="true"><g><path d="M13.12,3.57A8.51,8.51,0,0,1,13,20.45c-.32,0-.65.05-1,.05A8.52,8.52,0,0,1,3.56,13a4.92,4.92,0,0,0,1.93-.42,5.12,5.12,0,0,0,3-4.11,5,5,0,0,0,1.56-.4,5.1,5.1,0,0,0,3.06-4.52M12,2h-.31a.27.27,0,0,0-.24.34,3.6,3.6,0,0,1-2,4.37A3.54,3.54,0,0,1,8.05,7a3.33,3.33,0,0,1-.78-.09H7.21a.25.25,0,0,0-.25.3,3.58,3.58,0,0,1-3.49,4.3,3.73,3.73,0,0,1-1.32-.25h0a.08.08,0,0,0-.09.08q0,.33,0,.66A10,10,0,0,0,12,22a11,11,0,0,0,1.14-.06A10,10,0,0,0,12,2Z"></path><circle cx="11.99" cy="12.01" r="1.38"></circle><circle cx="15.14" cy="7.38" r="1.37"></circle><circle cx="17.23" cy="13" r="1.38"></circle><circle cx="12.97" cy="17.25" r="1.38"></circle><circle cx="7.36" cy="15.17" r="1.37"></circle></g></svg>